<?xml version="1.0" encoding="utf-8"?>
<!-- Generator: Adobe Illustrator 22.1.0, SVG Export Plug-In . SVG Version: 6.00 Build 0)  -->
<svg version="1.1" id="Lager_1" xmlns="http://www.w3.org/2000/svg" xmlns:xlink="http://www.w3.org/1999/xlink" x="0px" y="0px"
	 viewBox="0 0 256 256" style="enable-background:new 0 0 256 256;" xml:space="preserve">
<style type="text/css">
	.st0{fill:#666666;}
	.st1{opacity:0.5;}
	.st2{fill:#4D4D4D;}
	.st3{fill:url(#SVGID_1_);}
	.st4{fill:url(#SVGID_2_);}
	.st5{fill:url(#SVGID_3_);}
	.st6{fill:url(#SVGID_4_);}
	.st7{fill:url(#SVGID_5_);}
	.st8{fill:url(#SVGID_6_);}
	.st9{fill:url(#SVGID_7_);}
	.st10{fill:url(#SVGID_8_);}
	.st11{fill:url(#SVGID_9_);}
	.st12{fill:url(#SVGID_10_);}
	.st13{fill:url(#SVGID_11_);}
	.st14{fill:url(#SVGID_12_);}
	.st15{fill:url(#SVGID_13_);}
	.st16{fill:url(#SVGID_14_);}
	.st17{fill:url(#SVGID_15_);}
	.st18{fill:url(#SVGID_16_);}
	.st19{fill:url(#SVGID_17_);}
	.st20{fill:url(#SVGID_18_);}
	.st21{fill:url(#SVGID_19_);}
	.st22{fill:url(#SVGID_20_);}
	.st23{fill:url(#SVGID_21_);}
	.st24{fill:url(#SVGID_22_);}
	.st25{fill:url(#SVGID_23_);}
	.st26{fill:url(#SVGID_24_);}
	.st27{fill:url(#SVGID_25_);}
	.st28{fill:#4D4D4D;stroke:#4D4D4D;stroke-miterlimit:10;}
	.st29{fill:#4D4D4D;stroke:#333333;stroke-width:4;stroke-miterlimit:10;}
	.st30{fill:#808080;}
	.st31{fill:url(#SVGID_26_);}
	.st32{fill:#B3B3B3;stroke:#4D4D4D;stroke-miterlimit:10;}
</style>
<path class="st32" d="M256,156.8c0,19.5-19,35.3-42.5,35.3c-14.4,0-27.1-5.9-34.8-15c-7.9,12.7-23.8,21.4-42.2,21.4
	c-16.2,0-30.6-6.8-39.2-17.1c-10.1,9.3-24.8,15.1-41,15.1c-30.5,0-55.3-20.6-55.3-46c0-24.7,23.3-44.8,52.6-45.9
	C50,97.8,48,90.3,48,82.5c0-30.9,31.3-56,70-56s70,25.1,70,56c0,3.2-0.3,6.3-1,9.3c18.1,2,32,13.4,32,27.2c0,0.9-0.1,1.9-0.2,2.8
	C239.8,123.9,256,138.8,256,156.8z"/>
</svg>
