<?xml version="1.0" encoding="utf-8"?>
<!-- Generator: Adobe Illustrator 22.1.0, SVG Export Plug-In . SVG Version: 6.00 Build 0)  -->
<svg version="1.1" xmlns="http://www.w3.org/2000/svg" xmlns:xlink="http://www.w3.org/1999/xlink" x="0px" y="0px"
	 viewBox="0 0 1024 1024" style="enable-background:new 0 0 1024 1024;" xml:space="preserve">
<style type="text/css">
	.st0{fill:#F1A556;}
	.st1{fill:#494949;}
	.st2{fill:#333333;}
	.st3{fill:#998F8F;}
	.st4{fill:#AA723F;}
	.st5{fill:#FBDFD2;}
	.st6{fill:#BF4C4C;}
	.st7{fill:#734319;}
	.st8{fill:#BFB2A3;}
	.st9{fill:#544C4C;}
	.st10{fill:#9B7E4B;}
	.st11{fill:#FFFFFF;}
	.st12{fill:#914141;}
	.st13{fill:#FFA2A0;}
	.st14{fill:#A85747;}
	.st15{fill:#705A3C;}
	.st16{opacity:0.5;}
	.st17{fill:#BDA78A;}
	.st18{fill:#2F2E2A;}
	.st19{fill:#383734;}
	.st20{opacity:0.6;}
	.st21{fill:#ED635D;}
	.st22{fill:#A54646;}
	.st23{opacity:0.8;}
	.st24{fill:#CEBDAE;}
	.st25{fill:#E0DAD5;}
</style>
<g id="Bottom_2_">
	<g id="Bottom_1_">
		<g>
			<rect x="377.6" y="653.3" class="st0" width="231.8" height="15.7"/>
			<g>
				<path class="st1" d="M390.2,687.8l7.5,146.3h84.8l3.9-70.4c0-4.2,3.4-7.6,7.6-7.6h5.7c4.2,0,7.6,3.4,7.6,7.6l6.4,70.4h80.4
					l7.5-151.3c0,0,4.8-9.4,7.6-13.8H377.6C377.6,669,382.5,684.6,390.2,687.8z"/>
				<path class="st2" d="M510.7,669v43.8c0,0-9.1,10.5-17.3,13.1c0-21,0-56.9,0-56.9L510.7,669L510.7,669z"/>
				<polygon class="st3" points="482.5,834.1 397.7,834.1 396.9,818.5 483.3,818.5 				"/>
				<polygon class="st3" points="513.8,834.1 512.4,818.5 595,818.5 594.2,834.1 				"/>
			</g>
			<rect x="482.4" y="653.3" class="st4" width="47.7" height="15.7"/>
		</g>
	</g>
</g>
<g id="Right_arm_2_">
	<g id="Right_arm_1_">
		<g>
			<g>
				<path class="st5" d="M661.7,605.3c-3.8,1-6.5,2.9-9-4.6c-0.3-0.9-39.6-98.3-47.1-119.9c-3.6-6.8-29.7-44.3-53.4-77.2
					c-4.9-6.9-3.2-16.5,3.8-21.3c6.9-4.6,16.2-2.5,21,4.3c53.6,74.7,56,81.5,56.8,83.7c7.3,20.7,34.9,115,36.2,118.9
					c2.6,7.9,0.7,13.3-7.2,15.9C662.4,605.1,662,605.2,661.7,605.3z M605.6,481L605.6,481L605.6,481z M605.3,480.2v0.1
					C605.3,480.2,605.3,480.2,605.3,480.2z"/>
			</g>
			<path class="st6" d="M575.4,446.2l41.9-16.6c0,0-36.1-64.9-49.3-70.1c-6-2.4-13.1-2.7-25.2-2.4c-9.9,0.2-13.2,14.3-7.7,24.7
				L575.4,446.2z"/>
			<g>
				<path class="st7" d="M673.4,587.5c-0.8-3,9.8,29.7,9.9,46.9c0.1,9.3,0.1,5.3-0.2,12.5c-0.1,2.2,0.2,8.2-2.8,14
					c-3.8,7.1-21.1,22.1-27.8,18.6c-7.4-3.9-0.8-9.1,1.2-9.7c1.1-0.4,11.4-7.2,14-10.9c2.8-4,2.4-6.2,1.1-10.5
					c-2.6-2.8-8.5-4.4-12.1-0.9s-5.1,6.3-7.9,4.8c-2-1-7.1-3.2-0.2-12.1c7.2-9.3,10.2-7.9,11-12.8c0.8-5-10.3-22.3-10.3-22.3
					L673.4,587.5z"/>
				<polygon class="st8" points="673.4,587.5 649.2,605 652,609.6 675.5,594.3 				"/>
			</g>
		</g>
	</g>
</g>
<g id="Shoes">
	<g id="Legs_1_">
		<g>
			<path class="st9" d="M459.6,891.6v57.3c0,0,36.3,1.3,48.4,15.3c0,15.9,0,15.9,0,15.9H406.7v-88.5H459.6z"/>
			<rect x="406.7" y="964.2" class="st10" width="101.3" height="15.9"/>
			<rect x="439.8" y="902.1" class="st11" width="19.8" height="4.7"/>
			<rect x="439.8" y="912.5" class="st11" width="19.8" height="4.7"/>
		</g>
		<path class="st5" d="M450.6,834.1h-2.7l0,0h-33.4v57.5h33.4v-42.1c1.4-1.6,2.5-3.8,3.2-6.4C451.9,839.6,451.7,836.4,450.6,834.1z"
			/>
		<g>
			<path class="st9" d="M582.3,891.6v57.3c0,0,36.3,1.3,48.4,15.3c0,15.9,0,15.9,0,15.9H529.4v-88.5H582.3z"/>
			<rect x="529.4" y="964.2" class="st10" width="101.3" height="15.9"/>
			<rect x="562.5" y="902" class="st11" width="19.8" height="4.7"/>
			<rect x="562.5" y="912.5" class="st11" width="19.8" height="4.7"/>
		</g>
		<path class="st5" d="M571.1,834.1h-2.7l0,0H535v57.5h33.4v-42.1c1.4-1.6,2.5-3.8,3.2-6.4C572.4,839.6,572.1,836.4,571.1,834.1z"/>
	</g>
</g>
<g id="Torso_2_">
	<g id="Torso_1_">
		<g>
			<path class="st6" d="M609.4,653.4l-231.8,4.8l1.5-243.6c0-8.2,33-57.6,42.8-57.6h117.7c0,0,67.5,12.6,57.4,77.7
				C583.7,520.6,601.4,641.3,609.4,653.4z"/>
			<path class="st12" d="M499.9,637.8L499.9,637.8c-1.2,0-2.2-1-2.2-2.2v-239c0-1.2,1-2.2,2.2-2.2l0,0c1.2,0,2.2,1,2.2,2.2v239
				C502.1,636.8,501.1,637.8,499.9,637.8z"/>
		</g>
	</g>
</g>
<g id="Head">
	<g id="Head_1_">
		<g>
			<path class="st5" d="M473.5,85.6c-30.9,3.4-67.7,54.2-67.7,54.2s-59.9,109.1-1.4,158c9.1,7.6,40.1,28.4,56.7,30l-7.1,29.4h76.3
				l3.8-30.1c7-0.1,13.4-0.3,19-0.5c20-0.7,38.2-11.7,48.2-29c10.7-18.5,20.3-48.6,20.3-96.9C621.6,92.5,504.4,82.2,473.5,85.6z"/>
			<path class="st13" d="M540.4,286.4L540.4,286.4c-4.5,0-8.2-3.7-8.2-8.2v-28.4c0-4.5,3.7-8.2,8.2-8.2l0,0c4.5,0,8.2,3.7,8.2,8.2
				v28.4C548.6,282.7,544.9,286.4,540.4,286.4z"/>
			<path class="st14" d="M586.8,192.1c0,0-43.1,4.6-86.5,15.4c-48.3,12-105.2,86.1-55.2,131.9c-20.1-11.5-53.5-31.8-63.9-68.2
				c-13.6-47.5,6.7-108.2,40-140.9c30.3-30.7,63.4-63.3,112.5-58s58.4,42,58.4,42s9.9,14.6,26.9,44c21.7,37.7,28.8,126.7-35.4,169.3
				C597.4,299.1,617.6,210.8,586.8,192.1z"/>
			<g>
				<path class="st15" d="M632.5,171.2c0,0,70.6,17.1,75.4,39s-2.5,35.8-79.5,44s-190.8-16.5-190.8-16.5s-99.3-18.2-116.7-47.4
					s16.7-33,16.7-33s115.2-8.5,148.6-4.5C519.4,156.6,632.5,171.2,632.5,171.2z"/>
				<g class="st16">
					<path class="st17" d="M373.1,173.7c-10-0.5-20.1,0.1-30,1.8c-1.3,0.2-2.6,0.5-3.7,1.2c-1.7,1.2-2.5,3.5-2.2,5.5
						c0.2,2.1,1.4,3.9,2.6,5.6c2.8,4,7.2,9.7,15.6,14.6c26.4,15.1,47.4,22,81.7,20.7c4.3-0.2,49.4-6,53.2-8
						C464.6,196.2,404.4,180.1,373.1,173.7"/>
				</g>
				<path class="st15" d="M642.6,196.6c0,0-23.1-88.7-31.1-112.2c-8.1-23.6-25.7-35.9-34.6-38.2c-15.6-3.9-34.5-2.6-50.6,3.7
					c-16.1,6.3-39.9-6.2-60.2-5.8c-24.1,0.5-52.2,0-64.8,18.8s-22.8,70.4-22.8,70.4l-14.2,67.2c0,0,25.3,14.7,71.2,16.4
					s117.1,0.3,157.2-7.7C632.8,201.1,642.6,196.6,642.6,196.6z"/>
				<g class="st16">
					<path class="st17" d="M627.4,185.4c17.4,0.9,55.9,17.6,62.6,27.5c1.5,2.2,9.2,10.5,10.2,7.5c1.1-3.3,1.1-6.8-0.1-9.9
						c-1.5-3.8-4.4-7.2-8.2-9.6c-11.1-7.2-27.6-16.7-38.3-20.1c-10.9-3.4-19.1-6.8-26.8-6.8c-4.4,0-4.5,10.9-1.4,11.4"/>
				</g>
				<path class="st18" d="M364.2,200.5c0,0,25.3,14.7,71.2,16.4s117.1,0.3,157.2-7.7c40.1-8,49.8-15.1,49.8-15.1s-4.3-14.8-10-36.1
					c-6.2,2-19.5,5.7-45.3,10.9c-40.1,8-111.1,12-157,10.3c-26.8-1-49.1-6.2-60.9-10.6L364.2,200.5z"/>
				<g class="st16">
					<path class="st17" d="M520,51.6c6.4,0.3,12.5,3.7,18.4,5.8c13.3,4.9,28.1,6.3,42.3,3.9c2-0.3,4.3-0.9,5.3-2.6
						c1.3-2.2-0.4-5-2.4-6.7c-7.3-6.2-18.9-8.8-28.7-8c-10.7,0.9-15.8,1.2-28.6,5.9"/>
				</g>
				
					<ellipse transform="matrix(0.9772 -0.2125 0.2125 0.9772 -20.9049 93.151)" class="st19" cx="422.9" cy="143.8" rx="6.1" ry="8.5"/>
			</g>
			<g class="st20">
				<path class="st21" d="M529.7,313.4h-44.6c-2.1,0-3.8-1.7-3.8-3.8s1.7-3.8,3.8-3.8h44.6c2.1,0,3.8,1.7,3.8,3.8
					S531.8,313.4,529.7,313.4z"/>
			</g>
		</g>
	</g>
</g>
<g id="Left_arm_2_">
	<g id="Left_arm_1_">
		<g>
			<g>
				<g>
					<path class="st5" d="M312.2,604.2c-7.9-2.6-9.8-8-7.2-15.9c1.3-3.9,28.9-98.2,36.2-118.9c0.8-2.2,3.2-9.1,56.8-83.7
						c4.8-6.7,14.2-8.9,21-4.3c7.1,4.8,8.8,14.4,3.8,21.3c-23.6,32.9-49.8,70.4-53.4,77.2c-7.5,21.6-46.8,119-47.1,119.9
						c-2.5,7.6-5.3,5.7-9,4.6C312.9,604.4,312.5,604.3,312.2,604.2z M369.2,480.3L369.2,480.3L369.2,480.3z M369.6,479.5v-0.1
						C369.6,479.5,369.6,479.5,369.6,479.5z"/>
				</g>
				<path class="st22" d="M402.3,446.2l-44.7-17.3c0,0,37.3-64.6,51.2-69.6c6.3-2.3,13-3.1,22-1c10.3,2.3,19,13.6,13.2,24
					L402.3,446.2z"/>
				<path class="st7" d="M305.1,581.2c0.8-3-9.8,29.7-9.9,46.9c-0.1,9.3-0.1,5.3,0.2,12.5c0.1,2.2-0.2,8.2,2.8,14
					c3.8,7.1,21.1,22.1,27.8,18.6c7.4-3.9,0.8-9.1-1.2-9.7c-1.1-0.4-11.4-7.2-14-10.9c-2.8-4-2.4-6.2-1.1-10.5
					c2.6-2.8,8.5-4.4,12.1-0.9s5.1,6.3,7.9,4.8c2-1,7.1-3.2,0.2-12.1c-7.2-9.3-10.2-7.9-11-12.8c-0.8-5,10.3-22.3,10.3-22.3
					L305.1,581.2z"/>
				<polygon class="st8" points="305.1,581.2 329.3,598.7 326.5,603.3 303,588 				"/>
			</g>
			<g>
				<g class="st23">
					<path class="st24" d="M371.1,456.5c-0.1,2.4-2.2,4.2-4.5,4.1l-19.5-1c-0.1,0-0.2,0-0.3,0c0.8-1.2,2.4-3.5,5.5-8.4L367,452
						C369.4,452,371.2,454.1,371.1,456.5z"/>
				</g>
				<circle class="st25" cx="356.7" cy="455.7" r="3.7"/>
			</g>
		</g>
	</g>
</g>
</svg>
