<?xml version="1.0" encoding="utf-8"?>
<!-- Generator: Adobe Illustrator 22.1.0, SVG Export Plug-In . SVG Version: 6.00 Build 0)  -->
<svg version="1.1" id="Lager_1" xmlns="http://www.w3.org/2000/svg" xmlns:xlink="http://www.w3.org/1999/xlink" x="0px" y="0px"
	 viewBox="0 0 64 64" style="enable-background:new 0 0 64 64;" xml:space="preserve">
<style type="text/css">
	.st0{fill:#666666;}
	.st1{opacity:0.5;}
	.st2{fill:#4D4D4D;}
	.st3{fill:url(#SVGID_1_);}
	.st4{fill:url(#SVGID_2_);}
	.st5{fill:url(#SVGID_3_);}
	.st6{fill:url(#SVGID_4_);}
	.st7{fill:url(#SVGID_5_);}
	.st8{fill:url(#SVGID_6_);}
	.st9{fill:url(#SVGID_7_);}
	.st10{fill:url(#SVGID_8_);}
	.st11{fill:url(#SVGID_9_);}
	.st12{fill:url(#SVGID_10_);}
	.st13{fill:url(#SVGID_11_);}
	.st14{fill:url(#SVGID_12_);}
	.st15{fill:url(#SVGID_13_);}
	.st16{fill:url(#SVGID_14_);}
	.st17{fill:url(#SVGID_15_);}
	.st18{fill:url(#SVGID_16_);}
	.st19{fill:url(#SVGID_17_);}
	.st20{fill:url(#SVGID_18_);}
	.st21{fill:url(#SVGID_19_);}
	.st22{fill:url(#SVGID_20_);}
	.st23{fill:url(#SVGID_21_);}
	.st24{fill:url(#SVGID_22_);}
	.st25{fill:url(#SVGID_23_);}
	.st26{fill:url(#SVGID_24_);}
	.st27{fill:url(#SVGID_25_);}
	.st28{fill:#4D4D4D;stroke:#4D4D4D;stroke-miterlimit:10;}
	.st29{fill:#4D4D4D;stroke:#333333;stroke-width:4;stroke-miterlimit:10;}
	.st30{fill:#808080;}
	.st31{fill:url(#SVGID_26_);}
	.st32{fill:#B3B3B3;stroke:#4D4D4D;stroke-miterlimit:10;}
</style>
<polygon class="st0" points="22.4,43.9 11.6,47.9 2.7,40.5 4.6,29.1 15.4,25.1 24.3,32.5 "/>
<polygon class="st0" points="34,36 18.8,58.1 13,32.4 15.2,19.6 29.7,1.6 43.8,22.2 "/>
<polygon class="st0" points="40.4,45.9 29.6,49.9 20.7,42.5 22.6,31.1 33.4,27.1 46,33 "/>
<polygon class="st0" points="48.4,34.9 37.6,38.9 28.7,31.5 30.6,20.1 41.4,16.1 54,22 "/>
<polygon class="st30" points="50.4,44.9 39.6,48.9 30.7,41.5 32.6,30.1 43.4,26.1 56,32 "/>
<polygon class="st0" points="39.4,53.9 28.6,57.9 19.7,50.5 21.6,39.1 32.4,35.1 45,41 "/>
<polygon class="st0" points="58.3,37.7 63.4,50.2 55.1,60.9 41.7,59 36.6,46.5 43.1,31.6 "/>
</svg>
