<?xml version="1.0" encoding="utf-8"?>
<!-- Generator: Adobe Illustrator 22.1.0, SVG Export Plug-In . SVG Version: 6.00 Build 0)  -->
<svg version="1.1" id="Lager_1" xmlns="http://www.w3.org/2000/svg" xmlns:xlink="http://www.w3.org/1999/xlink" x="0px" y="0px"
	 viewBox="0 0 128 128" style="enable-background:new 0 0 128 128;" xml:space="preserve">
<style type="text/css">
	.st0{fill:#666666;}
	.st1{opacity:0.5;}
	.st2{fill:#4D4D4D;}
	.st3{fill:url(#SVGID_1_);}
	.st4{fill:url(#SVGID_2_);}
	.st5{fill:url(#SVGID_3_);}
	.st6{fill:url(#SVGID_4_);}
	.st7{fill:url(#SVGID_5_);}
	.st8{fill:url(#SVGID_6_);}
	.st9{fill:url(#SVGID_7_);}
	.st10{fill:url(#SVGID_8_);}
	.st11{fill:url(#SVGID_9_);}
	.st12{fill:url(#SVGID_10_);}
	.st13{fill:url(#SVGID_11_);}
	.st14{fill:url(#SVGID_12_);}
	.st15{fill:url(#SVGID_13_);}
	.st16{fill:url(#SVGID_14_);}
	.st17{fill:url(#SVGID_15_);}
	.st18{fill:url(#SVGID_16_);}
	.st19{fill:url(#SVGID_17_);}
	.st20{fill:url(#SVGID_18_);}
	.st21{fill:url(#SVGID_19_);}
	.st22{fill:url(#SVGID_20_);}
	.st23{fill:url(#SVGID_21_);}
	.st24{fill:url(#SVGID_22_);}
	.st25{fill:url(#SVGID_23_);}
	.st26{fill:url(#SVGID_24_);}
	.st27{fill:url(#SVGID_25_);}
	.st28{fill:#4D4D4D;stroke:#4D4D4D;stroke-miterlimit:10;}
	.st29{fill:#4D4D4D;stroke:#333333;stroke-width:4;stroke-miterlimit:10;}
	.st30{fill:#808080;}
	.st31{fill:url(#SVGID_26_);}
	.st32{fill:#B3B3B3;stroke:#4D4D4D;stroke-miterlimit:10;}
</style>
<polygon class="st30" points="121,119 85,113.6 69.5,95.4 77.4,72.8 101,68.4 116.5,86.6 "/>
<polygon class="st0" points="66.4,125 21,120 24.9,83.9 48.6,60 81.2,68.6 90.1,101.1 "/>
<polygon class="st0" points="110.1,85.7 98.9,92.6 87.4,86.4 86.9,73.3 98.1,66.4 128,71 "/>
<polygon class="st30" points="45.9,88.1 33.5,103.7 13.9,100.7 6.6,82.2 8.1,39.1 38.7,69.6 "/>
<polygon class="st0" points="82.4,40 81.1,77.2 48.2,94.7 16.6,75 17.9,37.8 50.8,20.3 "/>
<linearGradient id="SVGID_1_" gradientUnits="userSpaceOnUse" x1="51.5213" y1="50.2973" x2="128" y2="50.2973">
	<stop  offset="0" style="stop-color:#808080"/>
	<stop  offset="1" style="stop-color:#4D4D4D"/>
</linearGradient>
<polygon class="st3" points="112.5,68.4 86.5,88.6 56,76.2 51.5,43.6 77.5,23.4 128,12 "/>
</svg>
