<?xml version="1.0" encoding="utf-8"?>
<!-- Generator: Adobe Illustrator 22.1.0, SVG Export Plug-In . SVG Version: 6.00 Build 0)  -->
<svg version="1.1" id="Lager_1" xmlns="http://www.w3.org/2000/svg" xmlns:xlink="http://www.w3.org/1999/xlink" x="0px" y="0px"
	 viewBox="0 0 1024 1024" style="enable-background:new 0 0 1024 1024;" xml:space="preserve">
<style type="text/css">
	.st0{fill:#666666;}
	.st1{opacity:0.5;}
	.st2{fill:#4D4D4D;}
	.st3{fill:url(#SVGID_1_);}
	.st4{fill:url(#SVGID_2_);}
	.st5{fill:url(#SVGID_3_);}
	.st6{fill:url(#SVGID_4_);}
	.st7{fill:url(#SVGID_5_);}
	.st8{fill:url(#SVGID_6_);}
	.st9{fill:url(#SVGID_7_);}
	.st10{fill:url(#SVGID_8_);}
	.st11{fill:url(#SVGID_9_);}
	.st12{fill:url(#SVGID_10_);}
	.st13{fill:url(#SVGID_11_);}
	.st14{fill:url(#SVGID_12_);}
	.st15{fill:url(#SVGID_13_);}
	.st16{fill:url(#SVGID_14_);}
	.st17{fill:url(#SVGID_15_);}
	.st18{fill:url(#SVGID_16_);}
	.st19{fill:url(#SVGID_17_);}
	.st20{fill:url(#SVGID_18_);}
	.st21{fill:url(#SVGID_19_);}
	.st22{fill:url(#SVGID_20_);}
	.st23{fill:url(#SVGID_21_);}
	.st24{fill:url(#SVGID_22_);}
	.st25{fill:url(#SVGID_23_);}
	.st26{fill:url(#SVGID_24_);}
	.st27{fill:url(#SVGID_25_);}
	.st28{fill:#4D4D4D;stroke:#4D4D4D;stroke-miterlimit:10;}
	.st29{fill:#4D4D4D;stroke:#333333;stroke-width:4;stroke-miterlimit:10;}
	.st30{fill:#808080;}
	.st31{fill:url(#SVGID_26_);}
	.st32{fill:#B3B3B3;stroke:#4D4D4D;stroke-miterlimit:10;}
</style>
<rect x="0.5" y="0" class="st0" width="1023" height="1025"/>
<path class="st29" d="M326.8,110H12.5c-6.6,0-12-5.4-12-12V13c0-6.6,5.4-12,12-12h314.3c6.6,0,12,5.4,12,12v85
	C338.8,104.6,333.4,110,326.8,110z"/>
<path class="st29" d="M669.1,110H354.9c-6.6,0-12-5.4-12-12V13c0-6.6,5.4-12,12-12h314.3c6.6,0,12,5.4,12,12v85
	C681.1,104.6,675.7,110,669.1,110z"/>
<path class="st29" d="M1011.5,111H697.2c-6.6,0-12-5.4-12-12V14c0-6.6,5.4-12,12-12h314.3c6.6,0,12,5.4,12,12v85
	C1023.5,105.6,1018.1,111,1011.5,111z"/>
<path class="st29" d="M326.8,221H12.5c-6.6,0-12-5.4-12-12v-85c0-6.6,5.4-12,12-12h314.3c6.6,0,12,5.4,12,12v85
	C338.8,215.6,333.4,221,326.8,221z"/>
<path class="st29" d="M669.1,221H354.9c-6.6,0-12-5.4-12-12v-85c0-6.6,5.4-12,12-12h314.3c6.6,0,12,5.4,12,12v85
	C681.1,215.6,675.7,221,669.1,221z"/>
<path class="st29" d="M1011.5,222H697.2c-6.6,0-12-5.4-12-12v-85c0-6.6,5.4-12,12-12h314.3c6.6,0,12,5.4,12,12v85
	C1023.5,216.6,1018.1,222,1011.5,222z"/>
<path class="st29" d="M326.8,332H12.5c-6.6,0-12-5.4-12-12v-85c0-6.6,5.4-12,12-12h314.3c6.6,0,12,5.4,12,12v85
	C338.8,326.6,333.4,332,326.8,332z"/>
<path class="st29" d="M669.1,332H354.9c-6.6,0-12-5.4-12-12v-85c0-6.6,5.4-12,12-12h314.3c6.6,0,12,5.4,12,12v85
	C681.1,326.6,675.7,332,669.1,332z"/>
<path class="st29" d="M1011.5,333H697.2c-6.6,0-12-5.4-12-12v-85c0-6.6,5.4-12,12-12h314.3c6.6,0,12,5.4,12,12v85
	C1023.5,327.6,1018.1,333,1011.5,333z"/>
<path class="st29" d="M326.8,446H12.5c-6.6,0-12-5.4-12-12v-85c0-6.6,5.4-12,12-12h314.3c6.6,0,12,5.4,12,12v85
	C338.8,440.6,333.4,446,326.8,446z"/>
<path class="st29" d="M669.1,446H354.9c-6.6,0-12-5.4-12-12v-85c0-6.6,5.4-12,12-12h314.3c6.6,0,12,5.4,12,12v85
	C681.1,440.6,675.7,446,669.1,446z"/>
<path class="st29" d="M1011.5,447H697.2c-6.6,0-12-5.4-12-12v-85c0-6.6,5.4-12,12-12h314.3c6.6,0,12,5.4,12,12v85
	C1023.5,441.6,1018.1,447,1011.5,447z"/>
<path class="st29" d="M326.8,560H12.5c-6.6,0-12-5.4-12-12v-85c0-6.6,5.4-12,12-12h314.3c6.6,0,12,5.4,12,12v85
	C338.8,554.6,333.4,560,326.8,560z"/>
<path class="st29" d="M669.1,560H354.9c-6.6,0-12-5.4-12-12v-85c0-6.6,5.4-12,12-12h314.3c6.6,0,12,5.4,12,12v85
	C681.1,554.6,675.7,560,669.1,560z"/>
<path class="st29" d="M1011.5,561H697.2c-6.6,0-12-5.4-12-12v-85c0-6.6,5.4-12,12-12h314.3c6.6,0,12,5.4,12,12v85
	C1023.5,555.6,1018.1,561,1011.5,561z"/>
<path class="st29" d="M326.8,675H12.5c-6.6,0-12-5.4-12-12v-85c0-6.6,5.4-12,12-12h314.3c6.6,0,12,5.4,12,12v85
	C338.8,669.6,333.4,675,326.8,675z"/>
<path class="st29" d="M669.1,675H354.9c-6.6,0-12-5.4-12-12v-85c0-6.6,5.4-12,12-12h314.3c6.6,0,12,5.4,12,12v85
	C681.1,669.6,675.7,675,669.1,675z"/>
<path class="st29" d="M1011.5,676H697.2c-6.6,0-12-5.4-12-12v-85c0-6.6,5.4-12,12-12h314.3c6.6,0,12,5.4,12,12v85
	C1023.5,670.6,1018.1,676,1011.5,676z"/>
<path class="st29" d="M326.8,790H12.5c-6.6,0-12-5.4-12-12v-85c0-6.6,5.4-12,12-12h314.3c6.6,0,12,5.4,12,12v85
	C338.8,784.6,333.4,790,326.8,790z"/>
<path class="st29" d="M669.1,790H354.9c-6.6,0-12-5.4-12-12v-85c0-6.6,5.4-12,12-12h314.3c6.6,0,12,5.4,12,12v85
	C681.1,784.6,675.7,790,669.1,790z"/>
<path class="st29" d="M1011.5,791H697.2c-6.6,0-12-5.4-12-12v-85c0-6.6,5.4-12,12-12h314.3c6.6,0,12,5.4,12,12v85
	C1023.5,785.6,1018.1,791,1011.5,791z"/>
<path class="st29" d="M326.8,905H12.5c-6.6,0-12-5.4-12-12v-85c0-6.6,5.4-12,12-12h314.3c6.6,0,12,5.4,12,12v85
	C338.8,899.6,333.4,905,326.8,905z"/>
<path class="st29" d="M669.1,905H354.9c-6.6,0-12-5.4-12-12v-85c0-6.6,5.4-12,12-12h314.3c6.6,0,12,5.4,12,12v85
	C681.1,899.6,675.7,905,669.1,905z"/>
<path class="st29" d="M1011.5,906H697.2c-6.6,0-12-5.4-12-12v-85c0-6.6,5.4-12,12-12h314.3c6.6,0,12,5.4,12,12v85
	C1023.5,900.6,1018.1,906,1011.5,906z"/>
<path class="st29" d="M328.9,1021.4H12.5c-6.6,0-12-5.4-12-12v-85.7c0-6.6,5.4-12,12-12h316.4c6.6,0,12,5.4,12,12v85.7
	C340.9,1016,335.5,1021.4,328.9,1021.4z"/>
<path class="st29" d="M673.5,1021.4H357.1c-6.6,0-12-5.4-12-12v-85.7c0-6.6,5.4-12,12-12h316.4c6.6,0,12,5.4,12,12v85.7
	C685.5,1016,680.1,1021.4,673.5,1021.4z"/>
<path class="st29" d="M1011.5,1022H697.2c-6.6,0-12-5.4-12-12v-85c0-6.6,5.4-12,12-12h314.3c6.6,0,12,5.4,12,12v85
	C1023.5,1016.6,1018.1,1022,1011.5,1022z"/>
</svg>
